<svg width="46" height="36" viewBox="0 0 46 36" fill="none" xmlns="http://www.w3.org/2000/svg">
<path d="M45.9532 7.9376V7.87414C45.9358 7.83002 45.9146 7.78758 45.8897 7.74723L45.8421 7.68377L45.7469 7.58065L45.6914 7.53306L45.5883 7.48547H45.5486L28.3198 0.441645C28.1291 0.364504 27.9157 0.364504 27.7249 0.441645L10.5358 7.36648H10.4961L10.393 7.41407L10.3375 7.46167L10.2423 7.56479L10.1947 7.62825C10.1698 7.6686 10.1486 7.71104 10.1312 7.75516V7.81862C10.1229 7.88446 10.1229 7.95109 10.1312 8.01692V14.3627H1.03297C0.594912 14.3627 0.239746 14.7179 0.239746 15.1559C0.239746 15.594 0.594912 15.9492 1.03297 15.9492V16.0523H10.036V18.7651H6.95041C6.51235 18.7651 6.15719 19.1203 6.15719 19.5583C6.15719 19.9964 6.51235 20.3515 6.95041 20.3515H10.036V23.0644H2.72253C2.28448 23.0644 1.92931 23.4195 1.92931 23.8576C1.92931 24.2956 2.28448 24.6508 2.72253 24.6508H10.036V27.9665C10.0376 28.2867 10.2317 28.5746 10.5278 28.6962L27.7249 35.8353C27.8109 35.8694 27.9022 35.8881 27.9946 35.8908C28.087 35.8881 28.1783 35.8694 28.2643 35.8353L45.4614 28.6962C45.7576 28.5746 45.9516 28.2867 45.9532 27.9665V8.13591C45.9615 8.07007 45.9615 8.00344 45.9532 7.9376ZM28.0184 2.05189L34.5387 4.66159L19.7054 10.936L12.9234 8.11211L28.0184 2.05189ZM27.2014 33.9236L11.6225 27.435V24.6429H14.9144C15.3524 24.6429 15.7076 24.2877 15.7076 23.8497C15.7076 23.4116 15.3524 23.0564 14.9144 23.0564H11.6225V20.3436H19.1581C19.5962 20.3436 19.9513 19.9884 19.9513 19.5504C19.9513 19.1123 19.5962 18.7572 19.1581 18.7572H11.6225V16.0523H13.2089C13.647 16.0523 14.0022 15.6971 14.0022 15.259C14.0022 14.821 13.647 14.4658 13.2089 14.4658H11.6225V9.29401L17.6827 11.8006L27.2014 15.7667V33.9236ZM28.0263 14.4262L21.7599 11.8006L36.609 5.50241L43.1055 8.12004L33.6424 12.0862L28.0263 14.4262ZM28.8116 33.9236V15.7667L33.2775 13.9106L44.3826 9.27815L44.4223 27.435L28.8116 33.9236Z" fill="#1A1A1A"/>
</svg>
