<svg width="47" height="47" viewBox="0 0 47 47" fill="none" xmlns="http://www.w3.org/2000/svg">
<path d="M22.7383 42.2754C18.9531 42.2757 15.2528 41.1536 12.1053 39.0509C8.95779 36.9482 6.50453 33.9594 5.05573 30.4624C3.60693 26.9654 3.22767 23.1174 3.9659 19.4048C4.70414 15.6923 6.52671 12.282 9.20314 9.60534C11.8796 6.92865 15.2896 5.10574 19.0021 4.36714C22.7146 3.62855 26.5627 4.00744 30.0598 5.4559C33.557 6.90435 36.546 9.35733 38.649 12.5046C40.752 15.6519 41.8745 19.3521 41.8745 23.1373C41.8692 28.2111 39.8515 33.0756 36.2639 36.6635C32.6764 40.2514 27.8121 42.2696 22.7383 42.2754ZM22.7383 5.24574C19.1987 5.24537 15.7385 6.29469 12.7953 8.26099C9.85211 10.2273 7.55814 13.0223 6.20351 16.2924C4.84888 19.5625 4.49444 23.1609 5.18503 26.6325C5.87561 30.1041 7.5802 33.2929 10.0832 35.7956C12.5862 38.2984 15.7752 40.0026 19.2468 40.6928C22.7185 41.3831 26.3169 41.0283 29.5868 39.6733C32.8568 38.3183 35.6516 36.024 37.6175 33.0806C39.5835 30.1372 40.6325 26.6769 40.6318 23.1373C40.6268 18.393 38.7401 13.8444 35.3856 10.4895C32.031 7.13463 27.4826 5.24743 22.7383 5.24201V5.24574Z" fill="#1A1A1A"/>
<path d="M8.24777 34.5344C7.07988 34.5591 5.91524 34.4024 4.79547 34.0697C4.20789 33.9158 3.65795 33.6436 3.17937 33.2696C2.70078 32.8957 2.30366 32.4278 2.01237 31.8949C1.08343 30.0252 2.24041 26.886 3.7988 24.6044C3.89331 24.4722 4.03584 24.3823 4.19586 24.3539C4.35587 24.3256 4.52062 24.361 4.6548 24.4527C4.78897 24.5444 4.8819 24.685 4.91365 24.8444C4.94541 25.0037 4.91346 25.1692 4.82467 25.3053C3.27126 27.5758 2.54364 30.1706 3.12524 31.3419C3.34558 31.7251 3.64123 32.0598 3.99439 32.3257C4.34754 32.5916 4.75088 32.7832 5.18009 32.8891C9.44142 34.2766 18.1337 32.167 26.8092 27.6435C38.9457 21.3143 45.3259 13.4981 43.6737 10.1688C43.0175 8.84968 40.9397 8.13945 37.9615 8.21029C37.8799 8.21229 37.7987 8.1982 37.7225 8.16882C37.6464 8.13944 37.5768 8.09535 37.5176 8.03906C37.3983 7.92539 37.3289 7.76894 37.3249 7.60415C37.3208 7.43935 37.3824 7.2797 37.4961 7.16032C37.6098 7.04093 37.7662 6.9716 37.931 6.96756C41.4598 6.88181 43.8961 7.81945 44.7865 9.6152C47.0117 14.0928 39.3676 22.4949 27.3833 28.7446C20.3259 32.4249 13.1858 34.5344 8.24777 34.5344Z" fill="#1A1A1A"/>
<path d="M39.8654 10.5649C39.7732 10.5649 39.6822 10.5444 39.5989 10.5048C39.5156 10.4653 39.4421 10.4077 39.3839 10.3362L37.4613 7.98186C37.408 7.91665 37.3685 7.84128 37.3453 7.76033C37.322 7.67938 37.3154 7.59454 37.3259 7.51097C37.3364 7.4274 37.3638 7.34684 37.4064 7.27419C37.4491 7.20153 37.506 7.1383 37.5738 7.08834L40.0767 5.2435C40.1424 5.19507 40.217 5.16007 40.2963 5.14048C40.3755 5.12089 40.4579 5.1171 40.5386 5.12933C40.6193 5.14156 40.6968 5.16958 40.7667 5.21177C40.8366 5.25396 40.8975 5.3095 40.946 5.37523C40.9944 5.44096 41.0294 5.51558 41.049 5.59484C41.0686 5.6741 41.0724 5.75644 41.0601 5.83716C41.0479 5.91788 41.0199 5.9954 40.9777 6.0653C40.9355 6.13519 40.88 6.19609 40.8142 6.24452L38.8389 7.70162L40.3482 9.55019C40.4227 9.64123 40.4697 9.75152 40.484 9.86826C40.4982 9.98499 40.479 10.1034 40.4287 10.2096C40.3783 10.3159 40.2988 10.4057 40.1994 10.4686C40.1001 10.5315 39.9849 10.5649 39.8673 10.5649H39.8654Z" fill="#1A1A1A"/>
<path d="M22.046 35.7525C21.6278 35.7544 21.2135 35.6726 20.8275 35.5121C19.4306 34.9193 18.6123 33.5765 18.0549 32.4736L18.0176 32.4003C17.684 31.7366 17.3385 31.05 16.7886 30.8518C16.5955 30.7923 16.3962 30.7554 16.1946 30.7418C15.9905 30.7232 15.7877 30.6919 15.5875 30.648C14.5044 30.3995 13.5743 29.5532 12.7516 28.0563L12.5211 27.6213C12.171 26.7978 11.6386 26.0644 10.9639 25.4764C10.7531 25.3297 10.5142 25.2281 10.2623 25.1781C10.0104 25.128 9.75086 25.1306 9.49997 25.1856C9.36962 25.2099 9.2464 25.2632 9.13948 25.3416C9.03256 25.42 8.94467 25.5215 8.88234 25.6386C8.63379 26.14 8.90408 26.78 9.21414 27.5219C9.56273 28.3552 9.95978 29.2997 9.62114 30.2708C9.13275 31.6646 7.43828 32.1418 6.01722 31.8907C5.88047 31.8675 5.75432 31.8024 5.65621 31.7043C5.56258 31.6059 5.5038 31.4795 5.48887 31.3444C5.47394 31.2094 5.50368 31.0732 5.57354 30.9566C5.6434 30.8401 5.74953 30.7497 5.87567 30.6992C6.00182 30.6488 6.14102 30.641 6.27198 30.6772C7.1481 30.8183 8.19386 30.5853 8.44676 29.8651C8.62758 29.3444 8.35542 28.6938 8.0671 28.0047C7.69429 27.1131 7.27114 26.1021 7.76698 25.093C7.90892 24.8143 8.11059 24.5703 8.35762 24.3785C8.60465 24.1867 8.89095 24.0517 9.19613 23.9832C9.62208 23.8841 10.0642 23.8764 10.4934 23.9606C10.9225 24.0448 11.329 24.2189 11.6859 24.4716C12.5236 25.1641 13.1861 26.0444 13.6196 27.041L13.8427 27.4592C14.4827 28.6242 15.1476 29.2717 15.8702 29.4363C16.0226 29.4688 16.1767 29.492 16.3319 29.5059C16.6332 29.528 16.9307 29.5875 17.2173 29.683C18.2283 30.0484 18.7279 31.042 19.1299 31.8398L19.1659 31.9125C19.6276 32.8259 20.2894 33.9313 21.3146 34.3669C21.5717 34.4692 21.8473 34.5171 22.1239 34.5075C22.4005 34.4979 22.6721 34.4309 22.9215 34.311C23.0737 34.2432 23.2094 34.1429 23.3188 34.0173C23.4283 33.8916 23.509 33.7435 23.5553 33.5833C23.7063 32.9769 23.3204 32.3052 22.9121 31.595C22.7879 31.3763 22.6605 31.16 22.5493 30.9407C21.8853 29.5777 21.6913 28.0332 21.9976 26.5484C22.304 25.0636 23.0933 23.722 24.2425 22.7331C24.3506 22.6454 24.4612 22.5603 24.5718 22.4752C24.88 22.2685 25.1515 22.0119 25.3752 21.7159C25.6104 21.2258 25.7195 20.6849 25.6928 20.142C25.7022 19.7695 25.7371 19.3981 25.7971 19.0303C25.9142 18.4925 26.0882 17.9687 26.316 17.4676C26.5389 16.9966 26.6968 16.4974 26.7851 15.9838C26.8032 15.7469 26.767 15.5091 26.6792 15.2883C26.5915 15.0676 26.4545 14.8698 26.2787 14.71C26.2186 14.6484 26.1424 14.6049 26.0589 14.5843C25.9754 14.5636 25.8877 14.5667 25.8058 14.5932C25.5351 14.7434 25.31 14.9641 25.1547 15.2319C24.8966 15.6299 24.5524 15.9648 24.1474 16.2118C23.8121 16.3736 23.4506 16.4742 23.0799 16.5088C21.5348 16.7209 19.9907 16.9363 18.4476 17.1551C16.5425 17.4216 15.3122 17.0264 14.7915 15.9776C14.5718 15.4383 14.4983 14.8506 14.5784 14.2738C14.6231 13.6524 14.7406 12.0039 16.0361 11.5156C17.085 11.1284 18.0556 11.8014 18.7633 12.2923L18.9 12.3867C19.7432 12.9714 21.2798 13.4381 21.9055 12.5868C21.959 12.5116 22.0081 12.4221 22.0584 12.3333C22.1761 12.1016 22.3275 11.8887 22.5076 11.7013C22.9797 11.3172 23.5663 11.1012 24.1748 11.0874C24.2649 11.0769 24.3543 11.0663 24.4426 11.0533C24.9681 11.0181 25.4792 10.8666 25.939 10.6098C26.3989 10.353 26.7959 9.99721 27.1014 9.56819C27.6904 8.61502 27.7228 7.17594 27.184 5.51503C27.1535 5.43616 27.1393 5.35188 27.1425 5.26735C27.1457 5.18283 27.166 5.09984 27.2024 5.02347C27.2388 4.9471 27.2903 4.87896 27.3539 4.82321C27.4176 4.76747 27.4919 4.72531 27.5724 4.6993C27.6528 4.67329 27.7378 4.66398 27.822 4.67196C27.9062 4.67993 27.9879 4.70501 28.0621 4.74566C28.1362 4.78631 28.2013 4.84168 28.2534 4.90837C28.3054 4.97506 28.3432 5.05167 28.3646 5.13351C28.8244 6.55768 29.1618 8.59638 28.1558 10.2219C27.7586 10.8078 27.235 11.2972 26.6235 11.6539C26.0121 12.0106 25.3283 12.2256 24.6228 12.2829C24.5202 12.2978 24.4208 12.3097 24.3208 12.3215C23.9833 12.3207 23.6527 12.4162 23.3676 12.5967C23.2773 12.7024 23.2005 12.8188 23.1389 12.9434C23.0694 13.0717 22.9931 13.1962 22.9103 13.3163C21.8446 14.7665 19.686 14.4453 18.1916 13.4101L18.0531 13.3144C17.4895 12.9236 16.9079 12.5203 16.4673 12.6806C16.102 12.8192 15.887 13.3685 15.8168 14.3583C15.7619 14.7169 15.7921 15.0835 15.905 15.4283C16.2219 16.0664 17.3689 16.0497 18.273 15.9254C19.814 15.7079 21.3625 15.4904 22.9041 15.2785C23.1298 15.2609 23.3511 15.2061 23.559 15.1164C23.7988 14.9488 24.0027 14.735 24.1586 14.4875C24.4511 14.0084 24.8873 13.6338 25.4051 13.4169C25.685 13.3229 25.9847 13.3035 26.2745 13.3607C26.5642 13.4179 26.8341 13.5497 27.0573 13.7431C27.396 14.035 27.66 14.4038 27.827 14.8186C27.994 15.2334 28.0593 15.6821 28.0173 16.1273C27.9192 16.756 27.7324 17.3675 27.4624 17.9436C27.2693 18.365 27.12 18.8052 27.0169 19.2571C26.968 19.5698 26.9398 19.8853 26.9324 20.2016C26.9588 20.9622 26.782 21.7161 26.4204 22.3857C26.1219 22.8062 25.7515 23.1705 25.3261 23.4619C25.2255 23.5396 25.1254 23.616 25.0285 23.6956C24.0936 24.4998 23.4515 25.5911 23.2025 26.7989C22.9535 28.0068 23.1116 29.2631 23.6522 30.3715C23.756 30.5747 23.8715 30.7748 23.9871 30.9761C24.4767 31.8267 25.0316 32.7911 24.7595 33.8835C24.6714 34.2189 24.5104 34.5309 24.2881 34.7971C24.0658 35.0633 23.7876 35.2773 23.4732 35.4238C23.029 35.6416 22.5407 35.7541 22.046 35.7525Z" fill="#1A1A1A"/>
<path d="M36.9273 35.6468C36.8088 35.6467 36.6928 35.6126 36.593 35.5487C35.4584 34.8229 34.7053 33.272 35.4087 31.9342C35.6242 31.5554 35.899 31.2137 36.2227 30.922C36.3513 30.794 36.4805 30.6672 36.5955 30.5305C36.7819 30.3081 36.8012 30.1751 36.7956 30.1515C36.7012 30.0971 36.5942 30.0683 36.4853 30.0677C36.3764 30.0672 36.2692 30.095 36.1742 30.1484C35.532 30.4121 34.8146 30.4274 34.1616 30.1914C33.5087 29.9554 32.9669 29.4849 32.6417 28.8715C32.4926 28.5336 32.4207 28.1667 32.4315 27.7976C32.4422 27.4284 32.5353 27.0663 32.7039 26.7377C32.8496 26.4243 33.0644 26.148 33.3323 25.9296C33.6002 25.7112 33.9141 25.5565 34.2505 25.4769C34.5636 25.4174 34.8829 25.3965 35.2012 25.4148C35.4682 25.4436 35.7384 25.4158 35.994 25.3334C36.1597 25.2179 36.2939 25.063 36.3846 24.8825C36.4753 24.7021 36.5196 24.5019 36.5135 24.3001C36.5543 24.0139 36.5241 23.7221 36.4253 23.4504C36.3266 23.1787 36.1625 22.9355 35.9474 22.7423C35.5889 22.4318 35.1979 22.1609 34.7811 21.9345C34.55 21.7972 34.3145 21.6574 34.0833 21.5046C33.959 21.4225 33.8528 21.3579 33.7577 21.3008C32.9586 20.8173 32.7362 20.4538 32.9002 19.1204C33.0312 18.3105 33.3537 17.5435 33.841 16.8835C33.9218 16.7592 34.0044 16.6268 34.0895 16.4926C35.2788 14.5484 35.3006 13.0689 35.3323 11.0246C35.336 10.7487 35.3403 10.4654 35.3478 10.1733C35.3486 10.0914 35.3659 10.0105 35.3986 9.93536C35.4313 9.86023 35.4788 9.79244 35.5382 9.73599C35.5976 9.67955 35.6677 9.63561 35.7444 9.60678C35.8211 9.57794 35.9028 9.5648 35.9847 9.56813C36.1494 9.57236 36.3057 9.64184 36.4192 9.76127C36.5327 9.88071 36.5941 10.0403 36.5899 10.205C36.5831 10.4927 36.5787 10.7717 36.575 11.0433C36.5433 13.118 36.5166 14.91 35.1508 17.1432C35.0651 17.2842 34.9781 17.4203 34.893 17.5545C34.5077 18.0592 34.2488 18.6487 34.138 19.2739C34.0779 19.5269 34.0703 19.7895 34.1156 20.0456C34.2055 20.1195 34.3023 20.1846 34.4046 20.2401C34.5133 20.3053 34.6351 20.3799 34.773 20.4712C34.9849 20.611 35.2043 20.7409 35.4199 20.8689C35.9151 21.1392 36.3786 21.4639 36.8018 21.837C37.1479 22.1558 37.4146 22.5511 37.5806 22.9915C37.7465 23.4318 37.8071 23.9049 37.7574 24.3728C37.7618 24.801 37.6486 25.2222 37.4303 25.5907C37.2119 25.9591 36.8968 26.2606 36.5191 26.4624C36.0942 26.6316 35.6355 26.6987 35.18 26.6582C34.9589 26.644 34.7369 26.6548 34.5183 26.6905C34.3647 26.7312 34.2224 26.8061 34.1018 26.9095C33.9812 27.0129 33.8855 27.1421 33.8217 27.2876C33.7366 27.4493 33.688 27.6278 33.6795 27.8103C33.6711 27.9929 33.7028 28.175 33.7726 28.3439C33.9598 28.6665 34.2567 28.911 34.6093 29.0327C34.9618 29.1545 35.3463 29.1453 35.6926 29.0069C36.0404 28.8335 36.4357 28.7799 36.8171 28.8544C37.1985 28.9289 37.5446 29.1274 37.8016 29.4189C37.9507 29.6215 38.3738 30.3578 37.5499 31.3333C37.4113 31.498 37.2572 31.6521 37.1025 31.8056C36.8728 32.009 36.675 32.2459 36.516 32.5083C36.1587 33.1887 36.6166 34.0878 37.2672 34.5041C37.3803 34.5766 37.4669 34.6838 37.514 34.8097C37.561 34.9355 37.566 35.0732 37.5282 35.2021C37.4905 35.3311 37.4119 35.4443 37.3043 35.5248C37.1968 35.6053 37.066 35.6488 36.9317 35.6487L36.9273 35.6468Z" fill="#1A1A1A"/>
<path d="M28.7137 41.2832C28.5675 41.283 28.4261 41.2313 28.3143 41.1372C28.2025 41.0431 28.1274 40.9126 28.1022 40.7687C28.0475 40.4522 27.9341 40.1487 27.768 39.8739C27.3426 39.2142 26.7341 38.693 26.0169 38.3739C25.5867 38.1365 25.1001 38.0201 24.6089 38.0371C23.9138 38.188 23.2677 38.511 22.7299 38.9766C21.86 39.5899 20.8801 40.2877 19.6716 40.0473C19.3107 39.9625 18.9632 39.8285 18.6389 39.649L16.2472 38.4684C16.0987 38.3819 15.9327 38.3298 15.7615 38.3158C15.5902 38.3019 15.418 38.3264 15.2574 38.3876C15.0375 38.5044 14.8444 38.6657 14.6904 38.8613C14.5363 39.0568 14.4247 39.2824 14.3626 39.5234C14.3425 39.6064 14.3055 39.6842 14.2539 39.7522C14.2023 39.8202 14.1373 39.8769 14.0629 39.9186C13.9885 39.9604 13.9063 39.9864 13.8214 39.995C13.7365 40.0035 13.6507 39.9946 13.5694 39.9686C13.4882 39.9425 13.4131 39.9001 13.349 39.8438C13.2848 39.7875 13.233 39.7186 13.1966 39.6414C13.1603 39.5642 13.1402 39.4804 13.1377 39.3951C13.1352 39.3098 13.1503 39.2249 13.182 39.1457C13.2961 38.733 13.4973 38.3497 13.7721 38.0215C14.047 37.6932 14.389 37.4278 14.7752 37.243C15.1003 37.1106 15.4507 37.0519 15.8012 37.0713C16.1517 37.0906 16.4936 37.1875 16.8021 37.3549L19.2012 38.5417C19.4268 38.6689 19.6681 38.7663 19.9189 38.8312C20.598 38.9679 21.256 38.5013 22.0154 37.9613C22.7259 37.3622 23.582 36.9612 24.4971 36.7988C25.2152 36.7571 25.9308 36.9154 26.5644 37.2561C27.4964 37.68 28.2842 38.367 28.8311 39.2326C29.0775 39.6394 29.246 40.0884 29.3282 40.5568C29.3423 40.6372 29.3404 40.7196 29.3227 40.7993C29.3049 40.879 29.2717 40.9544 29.2247 41.0212C29.1778 41.0881 29.1182 41.145 29.0493 41.1888C28.9803 41.2325 28.9035 41.2623 28.823 41.2763C28.7868 41.2814 28.7502 41.2837 28.7137 41.2832Z" fill="#1A1A1A"/>
</svg>
