<svg width="47" height="46" viewBox="0 0 47 46" fill="none" xmlns="http://www.w3.org/2000/svg">
<path d="M9.36155 12.3926C11.3652 12.6733 13.2018 13.5031 14.6724 14.7923C17.1689 16.9805 20.3805 18.2633 23.7157 18.4046C23.9204 18.4132 24.1247 18.4176 24.3291 18.4175C27.5003 18.4175 30.6137 17.3786 33.1565 15.4609C34.1873 14.6835 35.1014 13.7813 35.8878 12.7741C36.782 13.5791 37.5987 14.4709 38.3179 15.4343C38.4942 15.6705 38.7645 15.7952 39.0381 15.7952C39.2249 15.7952 39.4134 15.7371 39.5747 15.6168C39.9721 15.3201 40.0537 14.7574 39.757 14.36C38.8151 13.0982 37.7205 11.9486 36.5106 10.9391C36.0185 9.48274 35.2971 8.11003 34.3631 6.85541C32.4467 4.28078 29.8015 2.44859 26.7135 1.55683C23.7264 0.694345 20.4799 0.804884 17.5718 1.86833C17.1061 2.03859 16.8666 2.55428 17.0369 3.02005C17.2072 3.48573 17.7228 3.72531 18.1886 3.55497C20.7412 2.62145 23.5917 2.52465 26.2152 3.28226C28.923 4.0642 31.2423 5.67055 32.9225 7.92775C33.1587 8.24499 33.3773 8.57167 33.5821 8.90508C33.3269 8.75943 33.0694 8.61773 32.808 8.48367C30.1951 7.14392 27.3885 6.41199 24.4548 6.30002L22.4118 4.4989C22.0398 4.17096 21.4725 4.20661 21.1445 4.57864C20.8165 4.95066 20.8522 5.51808 21.2242 5.84601L21.8152 6.36701C20.4512 6.49146 19.1072 6.75394 17.8008 7.15209C17.3264 7.29666 17.059 7.79844 17.2037 8.27283C17.3482 8.74722 17.8505 9.01481 18.3243 8.86997C20.0467 8.34503 21.8422 8.07887 23.661 8.07887C25.2402 8.07887 26.7807 8.27588 28.2712 8.66344L26.1122 10.434C25.7288 10.7485 25.6728 11.3143 25.9873 11.6978C26.1649 11.9143 26.4225 12.0264 26.6821 12.0264C26.8824 12.0264 27.0841 11.9597 27.2511 11.8227L30.3001 9.32218C30.8718 9.54604 31.4353 9.79801 31.9886 10.0818C32.8641 10.5307 33.703 11.054 34.4967 11.6401C33.8015 12.5358 32.9901 13.3368 32.0749 14.0271C29.6997 15.8185 26.7576 16.7358 23.7914 16.6104C20.8638 16.4864 18.0458 15.3611 15.8561 13.4418C14.3893 12.1561 12.6184 11.2584 10.6851 10.8127C11.0802 9.82872 11.5932 8.90149 12.2165 8.04628C12.5085 7.64552 12.4204 7.08376 12.0197 6.79174C11.6189 6.49981 11.0571 6.58781 10.7651 6.98866C9.8275 8.27543 9.10887 9.70408 8.62918 11.235C8.55034 11.4868 8.58617 11.7605 8.72724 11.9835C8.86831 12.2062 9.10025 12.3559 9.36155 12.3926Z" fill="#1A1A1A"/>
<path d="M17.9503 37.5878C18.5971 34.3317 18.1023 30.909 16.5569 27.95C14.9902 24.9501 12.4084 22.5691 9.28724 21.2458C8.0987 20.7419 6.8606 20.3992 5.59511 20.2218C5.8451 19.0456 6.20895 17.8931 6.68343 16.7892C6.87927 16.3336 6.66861 15.8055 6.21308 15.6096C5.75701 15.4137 5.22928 15.6244 5.03343 16.0801C4.41169 17.5268 3.96343 19.0495 3.69413 20.6021C2.67899 21.7563 1.85081 23.0676 1.23122 24.5037C-0.315245 28.088 -0.3658 32.0675 1.0888 35.7092C2.55094 39.3701 5.35284 42.2385 8.97843 43.7863C10.8005 44.5642 12.7302 44.9572 14.6788 44.9572C15.7488 44.9572 16.8247 44.8386 17.8909 44.6002C18.1484 44.5427 18.3676 44.3748 18.4901 44.1411C18.6128 43.9075 18.6264 43.6317 18.5275 43.3872C17.7689 41.5114 17.5692 39.506 17.9503 37.5878ZM9.68359 42.1344C6.50052 40.7756 4.04038 38.2571 2.75667 35.0429C1.48049 31.8479 1.5244 28.3576 2.88022 25.215C3.03692 24.8518 3.2104 24.4991 3.39682 24.155C3.39835 24.4489 3.40427 24.7427 3.41891 25.0361C3.5651 27.9688 4.33455 30.7655 5.70457 33.3621L5.16624 36.0319C5.06819 36.5181 5.38283 36.9917 5.86898 37.0896C5.92888 37.1017 5.98859 37.1075 6.04741 37.1075C6.46603 37.1075 6.84075 36.8131 6.92669 36.3869L7.08239 35.6147C7.87215 36.7336 8.77154 37.7664 9.76944 38.6986C9.94256 38.8603 10.1627 38.9403 10.3822 38.9403C10.6223 38.9403 10.8618 38.8446 11.0386 38.6553C11.3772 38.2929 11.3578 37.7247 10.9954 37.3861C9.67973 36.157 8.55145 34.7352 7.642 33.1601C6.85234 31.7924 6.25277 30.3598 5.84312 28.8752L8.456 29.8596C8.56025 29.899 8.66729 29.9176 8.77235 29.9176C9.13539 29.9176 9.47724 29.6958 9.61274 29.336C9.78758 28.8719 9.55321 28.3539 9.08906 28.179L5.39899 26.7887C5.30695 26.1817 5.24347 25.5677 5.21249 24.9466C5.16355 23.9639 5.19722 22.9757 5.30794 21.9954C6.43128 22.1496 7.53074 22.4517 8.58611 22.8991C11.3251 24.0604 13.5904 26.1494 14.9649 28.7813C16.3214 31.3786 16.7559 34.3819 16.1886 37.2378C15.8086 39.1511 15.9165 41.1334 16.4973 43.0308C14.182 43.362 11.8457 43.0575 9.68359 42.1344Z" fill="#1A1A1A"/>
<path d="M45.9063 28.0203C45.5386 24.9736 44.2414 22.1638 42.1549 19.8949C41.9763 19.7006 41.7194 19.5946 41.4578 19.6055C41.194 19.6161 40.9485 19.7422 40.7862 19.9501C39.5413 21.545 37.9044 22.7205 36.0525 23.3496C32.9093 24.4175 30.1924 26.5574 28.4026 29.3752C26.588 32.2319 25.8169 35.6584 26.2315 39.0231C26.3893 40.3044 26.7116 41.5479 27.1907 42.7326C26.047 43.1041 24.8671 43.3654 23.6737 43.5063C23.1813 43.5645 22.8292 44.011 22.8874 44.5034C22.9414 44.9601 23.3292 45.296 23.778 45.296C23.8132 45.296 23.8487 45.294 23.8846 45.2898C25.4489 45.1049 26.9922 44.7315 28.4719 44.1881C29.4144 44.3769 30.3731 44.4727 31.3394 44.4727C31.9179 44.4727 32.499 44.4388 33.0807 44.3709C36.9581 43.918 40.4297 41.972 42.8562 38.8915C45.2956 35.7947 46.3787 31.9339 45.9063 28.0203ZM41.4455 37.7802C39.3166 40.4828 36.272 42.1899 32.8724 42.5871C32.4795 42.633 32.0873 42.6591 31.6961 42.6698C31.9498 42.5215 32.2014 42.3694 32.448 42.2101C34.9148 40.6172 36.9521 38.5525 38.5159 36.0677L41.0971 35.1991C41.5671 35.0408 41.82 34.5316 41.6618 34.0616C41.5036 33.5917 40.9946 33.3386 40.5243 33.497L39.7777 33.7483C40.3518 32.5049 40.7965 31.2097 41.1049 29.8793C41.2169 29.3962 40.916 28.9137 40.4329 28.8018C39.9499 28.6897 39.4674 28.9906 39.3555 29.4737C38.9488 31.2279 38.2815 32.916 37.3722 34.4909C36.5826 35.8586 35.6417 37.0941 34.5608 38.1911L34.1069 35.4361C34.0263 34.9468 33.5656 34.6156 33.0749 34.696C32.5856 34.7767 32.2542 35.2387 32.3349 35.7281L32.9759 39.6189C32.4962 40.0021 31.9963 40.3641 31.4738 40.7015C30.6473 41.2352 29.7747 41.7001 28.8703 42.0944C28.4422 41.0445 28.1541 39.9413 28.0139 38.8036C27.6502 35.8509 28.3265 32.8445 29.9186 30.3382C31.4897 27.8648 33.8733 25.9868 36.6303 25.0502C38.4772 24.4227 40.1401 23.338 41.4928 21.8864C42.9376 23.7261 43.8417 25.9017 44.1234 28.2356C44.5381 31.6716 43.5871 35.0613 41.4455 37.7802Z" fill="#1A1A1A"/>
<path d="M14.3259 5.53932C14.8219 5.53932 15.2239 5.13729 15.2239 4.64136C15.2239 4.14544 14.8219 3.74341 14.3259 3.74341C13.83 3.74341 13.428 4.14544 13.428 4.64136C13.428 5.13729 13.83 5.53932 14.3259 5.53932Z" fill="#1A1A1A"/>
</svg>
