<svg width="19" height="19" viewBox="0 0 19 19" fill="none" xmlns="http://www.w3.org/2000/svg">
<path fill-rule="evenodd" clip-rule="evenodd" d="M13.7001 0.430664H5.60978C2.81719 0.430664 0.553345 2.69451 0.553345 5.4871V13.5774C0.553345 16.37 2.81719 18.6338 5.60978 18.6338H13.7001C16.4927 18.6338 18.7565 16.37 18.7565 13.5774V5.4871C18.7565 2.69451 16.4927 0.430664 13.7001 0.430664ZM16.9868 13.5774C16.9812 15.3902 15.5129 16.8585 13.7001 16.8641H5.60978C3.7969 16.8585 2.32865 15.3902 2.3231 13.5774V5.4871C2.32865 3.67422 3.7969 2.20597 5.60978 2.20042H13.7001C15.5129 2.20597 16.9812 3.67422 16.9868 5.4871V13.5774ZM14.4586 5.73993C15.0171 5.73993 15.4698 5.28715 15.4698 4.72864C15.4698 4.17012 15.0171 3.71735 14.4586 3.71735C13.9 3.71735 13.4473 4.17012 13.4473 4.72864C13.4473 5.28715 13.9 5.73993 14.4586 5.73993ZM9.65494 4.98146C7.1416 4.98146 5.10414 7.01892 5.10414 9.53226C5.10414 12.0456 7.1416 14.0831 9.65494 14.0831C12.1683 14.0831 14.2057 12.0456 14.2057 9.53226C14.2085 8.32448 13.7298 7.16541 12.8758 6.31138C12.0218 5.45736 10.8627 4.97877 9.65494 4.98146ZM6.8739 9.53226C6.8739 11.0682 8.11899 12.3133 9.65494 12.3133C11.1909 12.3133 12.436 11.0682 12.436 9.53226C12.436 7.99631 11.1909 6.75121 9.65494 6.75121C8.11899 6.75121 6.8739 7.99631 6.8739 9.53226Z" fill="white"/>
</svg>
