<svg width="52" height="52" viewBox="0 0 52 52" fill="none" xmlns="http://www.w3.org/2000/svg">
<path fill-rule="evenodd" clip-rule="evenodd" d="M44.8373 14.1757C44.7692 14.0453 44.6748 13.9303 44.56 13.8382C44.4452 13.7461 44.3125 13.6788 44.1704 13.6406C44.0283 13.6024 43.8798 13.594 43.7343 13.6161C43.5887 13.6382 43.4494 13.6903 43.325 13.769C43.2007 13.8477 43.094 13.9513 43.0117 14.0734C42.9294 14.1954 42.8734 14.3332 42.8471 14.478C42.8208 14.6228 42.8248 14.7715 42.8589 14.9147C42.893 15.0579 42.9564 15.1924 43.0452 15.3098C44.978 18.3769 46.0531 21.9062 46.1584 25.53C46.2636 29.1538 45.3953 32.7395 43.6438 35.9137C41.8923 39.0878 39.3217 41.7343 36.1998 43.5773C33.0779 45.4203 29.5189 46.3925 25.8936 46.3926C20.8878 46.398 16.06 44.5358 12.3544 41.1702L14.3146 39.21C14.5435 39.4518 14.8192 39.6448 15.1248 39.7771C15.4304 39.9095 15.7597 39.9785 16.0927 39.9801H35.6945C36.3524 39.9774 36.9841 39.7217 37.4587 39.266C37.9232 38.7961 38.1847 38.1626 38.1867 37.5018V19.7202C38.1859 19.4997 38.1175 19.2846 37.9907 19.1042L36.5906 17.018L41.785 11.7675C41.885 11.6686 41.9643 11.5508 42.0184 11.421C42.0725 11.2913 42.1004 11.152 42.1004 11.0114C42.1004 10.8708 42.0725 10.7316 42.0184 10.6018C41.9643 10.4721 41.885 10.3543 41.785 10.2554C37.9018 6.2938 32.6868 3.91394 27.1496 3.57654C21.6125 3.23913 16.1471 4.96819 11.8116 8.42895C7.47601 11.8897 4.57873 16.836 3.68061 22.3102C2.7825 27.7845 3.94744 33.3972 6.9499 38.0619C7.01801 38.1924 7.11245 38.3073 7.22724 38.3994C7.34204 38.4915 7.47469 38.5588 7.61682 38.597C7.75895 38.6352 7.90746 38.6436 8.05297 38.6215C8.19848 38.5994 8.33783 38.5473 8.46219 38.4686C8.58656 38.3899 8.69325 38.2863 8.77552 38.1642C8.85779 38.0422 8.91385 37.9044 8.94015 37.7596C8.96645 37.6148 8.96243 37.4661 8.92833 37.3229C8.89423 37.1797 8.83081 37.0452 8.74206 36.9278C6.80922 33.8607 5.73416 30.3314 5.62887 26.7076C5.52358 23.0838 6.39192 19.4981 8.14342 16.3239C9.89492 13.1498 12.4655 10.5033 15.5874 8.6603C18.7093 6.81727 22.2683 5.84506 25.8936 5.84497C30.8995 5.83963 35.7273 7.70185 39.4328 11.0674L35.2325 15.2678L33.9443 13.4337C33.8388 13.2982 33.7054 13.1869 33.5533 13.1072C33.4012 13.0275 33.2337 12.9813 33.0623 12.9716H18.697C18.5236 12.972 18.3529 13.0143 18.1994 13.0947C18.0458 13.1751 17.9139 13.2914 17.8149 13.4337L13.8245 19.1182C13.7196 19.3088 13.653 19.518 13.6285 19.7342V36.8718L10.0722 40.4561C9.97227 40.555 9.89297 40.6728 9.83885 40.8026C9.78472 40.9323 9.75686 41.0716 9.75686 41.2122C9.75686 41.3528 9.78472 41.492 9.83885 41.6218C9.89297 41.7515 9.97227 41.8693 10.0722 41.9682C13.974 45.8401 19.1631 48.1422 24.6521 48.4366C30.141 48.7309 35.5466 46.9969 39.8401 43.5646C44.1336 40.1322 47.0152 35.2411 47.9367 29.822C48.8581 24.403 47.755 18.8343 44.8373 14.1757ZM15.7567 37.5018V20.7843H28.0218V37.8519H16.0927C16.0035 37.845 15.9199 37.8056 15.8579 37.741C15.7959 37.6764 15.7599 37.5913 15.7567 37.5018ZM36.0305 37.5018C36.0269 37.5959 35.987 37.685 35.9191 37.7502C35.8512 37.8155 35.7607 37.8519 35.6665 37.8519H30.164V20.0563L33.0903 15.8559L36.0305 20.0563V37.5018ZM19.229 15.0998H31.0321L28.5259 18.6561H16.7508L19.229 15.0998Z" fill="#322D2D"/>
<path fill-rule="evenodd" clip-rule="evenodd" d="M23.0914 17.9145C23.2997 17.9145 23.5033 17.8525 23.6763 17.7365C23.8493 17.6205 23.9838 17.4557 24.0629 17.263C24.1419 17.0703 24.1619 16.8584 24.1202 16.6544C24.0786 16.4503 23.9771 16.2632 23.8289 16.1169C23.6806 15.9706 23.4922 15.8718 23.2876 15.8328C23.083 15.7939 22.8714 15.8167 22.6798 15.8983C22.4882 15.98 22.3252 16.1167 22.2115 16.2913C22.0978 16.4658 22.0386 16.6702 22.0414 16.8784C22.045 17.1545 22.1573 17.418 22.3538 17.6119C22.5504 17.8058 22.8154 17.9145 23.0914 17.9145Z" fill="#322D2D"/>
</svg>
