<svg width="51" height="52" viewBox="0 0 51 52" fill="none" xmlns="http://www.w3.org/2000/svg">
<path d="M14.9271 32.6858C15.3528 32.6951 15.7761 32.6195 16.1723 32.4634C16.5685 32.3073 16.9297 32.0739 17.2347 31.7767C17.5397 31.4795 17.7824 31.1246 17.9487 30.7326C18.115 30.3406 18.2016 29.9193 18.2034 29.4935V26.6093C18.2034 26.327 18.0913 26.0564 17.8917 25.8568C17.6921 25.6573 17.4215 25.5452 17.1393 25.5452H14.003C13.7208 25.5452 13.4501 25.6573 13.2506 25.8568C13.051 26.0564 12.9389 26.327 12.9389 26.6093C12.9389 26.8915 13.051 27.1621 13.2506 27.3617C13.4501 27.5612 13.7208 27.6733 14.003 27.6733H16.0472V29.4935C16.0366 29.7747 15.9192 30.0414 15.7189 30.2391C15.5186 30.4368 15.2504 30.5507 14.9691 30.5576H11.8048C11.5713 30.5576 11.3401 30.5116 11.1243 30.4223C10.9086 30.3329 10.7126 30.2019 10.5474 30.0368C10.3823 29.8717 10.2513 29.6757 10.162 29.4599C10.0726 29.2442 10.0266 29.013 10.0266 28.7794V23.459C10.0266 22.9874 10.214 22.5351 10.5474 22.2016C10.8809 21.8681 11.3332 21.6808 11.8048 21.6808H15.8232C16.1054 21.6808 16.376 21.5687 16.5756 21.3691C16.7751 21.1696 16.8873 20.8989 16.8873 20.6167C16.8873 20.3345 16.7751 20.0638 16.5756 19.8643C16.376 19.6647 16.1054 19.5526 15.8232 19.5526H11.8048C10.7688 19.5526 9.77517 19.9642 9.04258 20.6968C8.31 21.4293 7.89844 22.4229 7.89844 23.459V28.7794C7.89844 29.8155 8.31 30.8091 9.04258 31.5417C9.77517 32.2742 10.7688 32.6858 11.8048 32.6858H14.9271Z" fill="#322D2D"/>
<path d="M29.4024 32.6845C29.6846 32.6845 29.9552 32.5724 30.1548 32.3728C30.3543 32.1733 30.4665 31.9026 30.4665 31.6204V20.6154C30.4696 20.3841 30.3972 20.1581 30.2604 19.9717C30.1236 19.7852 29.9298 19.6483 29.7082 19.5819C29.4867 19.5154 29.2495 19.5229 29.0326 19.6033C28.8158 19.6837 28.631 19.8326 28.5063 20.0274L25.202 24.9978L21.8837 20.0274C21.7596 19.8353 21.5762 19.689 21.3614 19.6107C21.1466 19.5323 20.9121 19.5262 20.6936 19.5933C20.4755 19.6616 20.2847 19.7973 20.1488 19.9811C20.0129 20.1648 19.9389 20.3869 19.9375 20.6154V31.6204C19.9375 31.9026 20.0496 32.1733 20.2492 32.3728C20.4487 32.5724 20.7194 32.6845 21.0016 32.6845C21.2838 32.6845 21.5545 32.5724 21.754 32.3728C21.9536 32.1733 22.0657 31.9026 22.0657 31.6204V24.1437L24.3619 27.518C24.4648 27.657 24.5988 27.7699 24.7532 27.8478C24.9076 27.9256 25.0781 27.9661 25.251 27.9661C25.4239 27.9661 25.5944 27.9256 25.7488 27.8478C25.9032 27.7699 26.0372 27.657 26.1401 27.518L28.3803 24.1577V31.6344C28.387 31.906 28.496 32.1651 28.6855 32.3598C28.875 32.5545 29.131 32.6705 29.4024 32.6845Z" fill="#322D2D"/>
<path d="M44.1469 14.175C44.0788 14.0446 43.9843 13.9296 43.8695 13.8375C43.7547 13.7454 43.6221 13.6781 43.48 13.6399C43.3378 13.6017 43.1893 13.5934 43.0438 13.6155C42.8983 13.6376 42.7589 13.6896 42.6346 13.7683C42.5102 13.847 42.4035 13.9507 42.3213 14.0727C42.239 14.1947 42.1829 14.3325 42.1566 14.4773C42.1303 14.6221 42.1343 14.7708 42.1684 14.914C42.2025 15.0572 42.266 15.1917 42.3547 15.3091C44.2876 18.3762 45.3626 21.9055 45.4679 25.5293C45.5732 29.1531 44.7049 32.7388 42.9534 35.913C41.2018 39.0871 38.6313 41.7336 35.5094 43.5766C32.3875 45.4196 28.8285 46.3918 25.2032 46.3919C20.1973 46.3973 15.3695 44.5351 11.6639 41.1695L16.0043 36.8291C16.1036 36.7298 16.1824 36.6119 16.2361 36.4822C16.2898 36.3525 16.3175 36.2134 16.3175 36.073C16.3175 35.9326 16.2898 35.7936 16.2361 35.6638C16.1824 35.5341 16.1036 35.4162 16.0043 35.3169C15.905 35.2177 15.7872 35.1389 15.6574 35.0852C15.5277 35.0314 15.3887 35.0038 15.2483 35.0038C15.1078 35.0038 14.9688 35.0314 14.8391 35.0852C14.7094 35.1389 14.5915 35.2177 14.4922 35.3169L9.38173 40.4554C9.28182 40.5543 9.20252 40.6721 9.1484 40.8019C9.09427 40.9317 9.06641 41.0709 9.06641 41.2115C9.06641 41.3521 9.09427 41.4913 9.1484 41.6211C9.20252 41.7508 9.28182 41.8686 9.38173 41.9675C13.2835 45.8394 18.4727 48.1415 23.9616 48.4359C29.4506 48.7302 34.8561 46.9962 39.1496 43.5639C43.4431 40.1315 46.3248 35.2404 47.2462 29.8213C48.1677 24.4023 47.0646 18.8336 44.1469 14.175Z" fill="#322D2D"/>
<path d="M4.93025 26.1177C4.93766 20.743 7.07603 15.5906 10.8765 11.7901C14.677 7.98966 19.8294 5.8513 25.2041 5.84389C30.2099 5.83855 35.0377 7.70077 38.7433 11.0664L34.4029 15.4068C34.3036 15.506 34.2249 15.6239 34.1711 15.7536C34.1174 15.8834 34.0897 16.0224 34.0897 16.1628C34.0897 16.3032 34.1174 16.4423 34.1711 16.572C34.2249 16.7017 34.3036 16.8196 34.4029 16.9189C34.5022 17.0182 34.6201 17.0969 34.7498 17.1507C34.8795 17.2044 35.0186 17.2321 35.159 17.2321C35.2994 17.2321 35.4384 17.2044 35.5682 17.1507C35.6979 17.0969 35.8158 17.0182 35.9151 16.9189L40.8995 11.9344C41.0206 11.8337 41.1199 11.7094 41.1915 11.5692C41.263 11.4289 41.3053 11.2755 41.3158 11.1184C41.3263 10.9612 41.3047 10.8036 41.2524 10.6551C41.2001 10.5065 41.1181 10.3702 41.0115 10.2543C37.1075 6.38698 31.9183 4.08951 26.4308 3.79884C20.9433 3.50817 15.5404 5.24459 11.2497 8.67783C6.959 12.1111 4.07988 17.0016 3.15995 22.4193C2.24002 27.8369 3.34345 33.4037 6.26037 38.0608C6.32849 38.1913 6.42293 38.3062 6.53772 38.3983C6.65251 38.4904 6.78517 38.5577 6.9273 38.5959C7.06943 38.6341 7.21794 38.6425 7.36345 38.6204C7.50896 38.5983 7.6483 38.5462 7.77267 38.4675C7.89704 38.3888 8.00373 38.2852 8.086 38.1631C8.16827 38.0411 8.22432 37.9033 8.25062 37.7585C8.27693 37.6137 8.2729 37.465 8.23881 37.3218C8.20471 37.1786 8.14128 37.0441 8.05254 36.9267C6.01567 33.6892 4.93346 29.9427 4.93025 26.1177Z" fill="#322D2D"/>
<path d="M38.8428 19.5526H35.3985C34.7375 19.5526 34.1036 19.8152 33.6362 20.2826C33.1688 20.75 32.9063 21.3839 32.9062 22.0448V30.1936C32.9063 30.8546 33.1688 31.4885 33.6362 31.9558C34.1036 32.4232 34.7375 32.6858 35.3985 32.6858H38.8428C39.5038 32.6853 40.1379 32.4236 40.6069 31.9577C40.8401 31.7273 41.0247 31.4525 41.1498 31.1495C41.2749 30.8464 41.3378 30.5214 41.335 30.1936V22.0448C41.3378 21.717 41.2749 21.392 41.1498 21.089C41.0247 20.7859 40.8401 20.5111 40.6069 20.2807C40.1379 19.8148 39.5038 19.5531 38.8428 19.5526ZM39.1928 30.1936C39.194 30.2413 39.1845 30.2886 39.1652 30.3322C39.1458 30.3758 39.117 30.4145 39.0808 30.4456C39.0513 30.48 39.0148 30.5077 38.9738 30.527C38.9327 30.5463 38.8881 30.5567 38.8428 30.5576H35.3985C35.3511 30.557 35.3043 30.5467 35.261 30.5275C35.2176 30.5082 35.1787 30.4804 35.1465 30.4456C35.1103 30.4145 35.0815 30.3758 35.0621 30.3322C35.0427 30.2886 35.0333 30.2413 35.0344 30.1936V22.0448C35.0379 21.9494 35.0774 21.8588 35.1449 21.7913C35.2124 21.7237 35.303 21.6843 35.3985 21.6808H38.8428C38.8881 21.6817 38.9327 21.6921 38.9738 21.7114C39.0148 21.7307 39.0513 21.7584 39.0808 21.7928C39.1156 21.825 39.1434 21.864 39.1627 21.9073C39.1819 21.9507 39.1922 21.9974 39.1928 22.0448V30.1936Z" fill="#322D2D"/>
</svg>
