<svg width="27" height="27" viewBox="0 0 27 27" fill="none" xmlns="http://www.w3.org/2000/svg">
<g clip-path="url(#clip0_1_681)">
<path d="M26.089 18.2574L23.1779 15.3463C26.5169 8.33966 21.3847 0.15686 13.5732 0.15686C5.77526 0.15686 0.622733 8.32559 3.96849 15.3463L1.05739 18.2574C0.247213 19.0676 0.591697 20.4503 1.69026 20.7848L4.92387 21.767L5.90603 25.0006C6.23922 26.0948 7.61903 26.4464 8.43341 25.6335L12.6832 21.3837C13.2674 21.4322 13.859 21.4338 14.4632 21.3837L18.713 25.6335C19.5244 26.4449 20.9065 26.097 21.2404 25.0006L22.2225 21.767L25.4561 20.7848C26.5564 20.4498 26.8978 19.0662 26.089 18.2574ZM7.35961 24.5592L6.37694 21.3255C6.2296 20.8395 5.8514 20.4613 5.36541 20.3135L2.1318 19.3313L4.7493 16.7138C6.17092 18.824 8.32871 20.3991 10.8515 21.0674L7.35961 24.5592ZM5.84679 15.6162C2.03105 9.53974 6.47045 1.6757 13.5732 1.6757C20.7333 1.6757 25.081 9.59426 21.2995 15.6161C17.7192 21.3262 9.42666 21.3254 5.84679 15.6162ZM21.781 20.3135C21.295 20.4613 20.9168 20.8395 20.769 21.3255L19.7868 24.5591L16.295 21.0673C18.8178 20.399 20.9756 18.8239 22.3972 16.7137L25.0147 19.3312L21.781 20.3135Z" fill="#322D2D"/>
<path d="M13.571 3.19397C8.48883 3.19397 4.81464 8.12711 6.3069 13.0052C7.57831 17.1713 12.0883 19.3849 16.1227 17.9415C19.0611 16.8898 21.1653 14.0787 21.1653 10.7882C21.1653 6.60073 17.7585 3.19397 13.571 3.19397ZM9.47524 15.2708C5.37435 11.5278 8.07215 4.71281 13.571 4.71281C17.3134 4.71281 20.1622 8.08023 19.571 11.741C18.8272 16.4861 13.0516 18.5434 9.47524 15.2708Z" fill="#322D2D"/>
<path d="M15.8775 8.73425L12.53 11.2189L11.3704 9.98339C11.0834 9.67748 10.6028 9.66224 10.297 9.94931C9.99117 10.2363 9.97588 10.717 10.263 11.0228L11.8856 12.7517C12.1497 13.0332 12.5825 13.0715 12.8919 12.8418L16.7827 9.95387C17.1195 9.70391 17.1898 9.22819 16.9399 8.89141C16.6899 8.55467 16.2143 8.48429 15.8775 8.73425Z" fill="#322D2D"/>
<circle cx="13.5756" cy="10.9584" r="7.92072" fill="#F9F9F9"/>
<path d="M7.61394 10.5789C7.61394 11.3464 7.84692 12.1755 8.80625 12.1755C9.73133 12.1755 9.94375 11.5246 9.95745 11.1614H8.81311V10.3391H10.862V12.9362H10.0054V12.4839C9.69706 12.8265 9.26536 13.0115 8.73773 13.0115C7.13427 13.0115 6.61349 11.7918 6.61349 10.5515C6.61349 9.40718 7.17539 8.06411 8.81996 8.06411C10.259 8.06411 10.7044 9.07141 10.7112 9.68127H9.72447C9.71077 9.33866 9.46408 8.9001 8.79255 8.9001C8.05934 8.9001 7.61394 9.48256 7.61394 10.5789ZM14.0694 11.6274L15.0356 8.13949H16.5226V12.9362H15.5769V9.36606L14.5628 12.9362H13.576L12.5619 9.36606V12.9362H11.6163V8.13949H13.1032L14.0694 11.6274ZM21.0105 9.68127C21.0105 10.113 20.8734 10.4899 20.6199 10.7708C20.3321 11.0929 19.873 11.2916 19.3111 11.2916H18.2901V12.9362H17.3444V8.13949H19.4687C20.3115 8.13949 21.0105 8.71509 21.0105 9.68127ZM20.0237 9.70868C20.0237 9.29754 19.8113 8.95492 19.1946 8.95492H18.2901V10.4762H19.174C19.8181 10.4762 20.0237 10.0993 20.0237 9.70868Z" fill="#322D2D"/>
</g>
<defs>
<clipPath id="clip0_1_681">
<rect width="25.9223" height="25.9223" fill="white" transform="translate(0.615845 0.15686)"/>
</clipPath>
</defs>
</svg>
