<svg width="45" height="46" viewBox="0 0 45 46" fill="none" xmlns="http://www.w3.org/2000/svg">
<circle cx="22.6425" cy="23.1182" r="21.242" stroke="#322D2D" stroke-width="2.16"/>
<g clip-path="url(#clip0_1_671)">
<path d="M32.5225 23.5514L30.2548 17.1387C29.2068 14.1758 26.5302 12.1085 23.4471 11.8003V10.157H21.8438V11.8003C18.7608 12.1085 16.0841 14.1759 15.0361 17.1388L12.7684 23.5514C12.3719 24.6727 12.1708 25.848 12.1708 27.0448C12.1708 32.8205 16.8697 37.5195 22.6455 37.5195C28.4213 37.5195 33.1202 32.8205 33.1202 27.0448C33.1202 25.8479 32.9191 24.6726 32.5225 23.5514ZM22.6455 35.9162C17.7537 35.9162 13.774 31.9365 13.774 27.0448C13.774 26.0306 13.9443 25.0351 14.2799 24.086L16.5477 17.6734C17.4595 15.0955 19.91 13.3635 22.6455 13.3635C25.381 13.3635 27.8315 15.0955 28.7433 17.6733L31.011 24.086C31.3467 25.0351 31.5169 26.0305 31.5169 27.0448C31.5169 31.9365 27.5372 35.9162 22.6455 35.9162Z" fill="#322D2D"/>
<path d="M22.6482 21.3799C19.5245 21.3799 16.9833 23.9212 16.9833 27.0448C16.9833 30.1684 19.5245 32.7097 22.6482 32.7097C25.7718 32.7097 28.3131 30.1684 28.3131 27.0448C28.3131 23.9212 25.7718 21.3799 22.6482 21.3799ZM22.6482 31.1064C20.4086 31.1064 18.5865 29.2843 18.5865 27.0448C18.5865 24.8052 20.4086 22.9832 22.6482 22.9832C24.8877 22.9832 26.7098 24.8052 26.7098 27.0448C26.7098 29.2843 24.8877 31.1064 22.6482 31.1064Z" fill="#322D2D"/>
</g>
<defs>
<clipPath id="clip0_1_671">
<rect width="27.3625" height="27.3625" fill="white" transform="translate(8.96375 10.157)"/>
</clipPath>
</defs>
</svg>
