<svg width="45" height="46" viewBox="0 0 45 46" fill="none" xmlns="http://www.w3.org/2000/svg">
<circle cx="22.5087" cy="23.1182" r="21.2419" stroke="#322D2D" stroke-width="2.1602"/>
<g clip-path="url(#clip0_1_690)">
<path d="M35.026 28.2576L32.1149 25.3465C35.4539 18.3398 30.3217 10.157 22.5102 10.157C14.7123 10.157 9.55974 18.3257 12.9055 25.3465L9.9944 28.2576C9.18423 29.0677 9.52871 30.4504 10.6273 30.7849L13.8609 31.7671L14.843 35.0007C15.1762 36.0949 16.556 36.4465 17.3704 35.6336L21.6202 31.3838C22.2044 31.4323 22.796 31.4339 23.4003 31.3838L27.65 35.6336C28.4614 36.445 29.8435 36.0971 30.1774 35.0007L31.1595 31.7671L34.3931 30.7849C35.4934 30.4499 35.8348 29.0664 35.026 28.2576ZM16.2966 34.5593L15.3139 31.3257C15.1666 30.8396 14.7884 30.4614 14.3024 30.3136L11.0688 29.3315L13.6863 26.714C15.1079 28.8242 17.2657 30.3992 19.7885 31.0675L16.2966 34.5593ZM14.7838 25.6163C10.9681 19.5399 15.4075 11.6758 22.5102 11.6758C29.6703 11.6758 34.018 19.5944 30.2366 25.6163C26.6562 31.3263 18.3637 31.3256 14.7838 25.6163ZM30.718 30.3136C30.232 30.4614 29.8538 30.8396 29.706 31.3256L28.7239 34.5592L25.232 31.0674C27.7549 30.3991 29.9126 28.8241 31.3343 26.7139L33.9518 29.3314L30.718 30.3136Z" fill="#322D2D"/>
<path d="M22.508 13.1941C17.4258 13.1941 13.7517 18.1272 15.2439 23.0053C16.5153 27.1715 21.0254 29.385 25.0597 27.9416C27.9981 26.8899 30.1023 24.0788 30.1023 20.7883C30.1023 16.6009 26.6955 13.1941 22.508 13.1941ZM18.4123 25.2709C14.3114 21.5279 17.0092 14.7129 22.508 14.7129C26.2504 14.7129 29.0992 18.0804 28.508 21.7411C27.7642 26.4862 21.9886 28.5436 18.4123 25.2709Z" fill="#322D2D"/>
<path d="M24.8145 18.7344L21.4671 21.2191L20.3074 19.9835C20.0204 19.6776 19.5398 19.6624 19.234 19.9494C18.9282 20.2365 18.9129 20.7171 19.2 21.0229L20.8226 22.7518C21.0867 23.0333 21.5196 23.0716 21.829 22.842L25.7197 19.954C26.0565 19.704 26.1268 19.2283 25.8769 18.8915C25.6269 18.5548 25.1513 18.4844 24.8145 18.7344Z" fill="#322D2D"/>
<circle cx="22.5087" cy="20.9586" r="7.92072" fill="#F9F9F9"/>
<path d="M20.3717 22.9363H19.2205L17.4046 19.5649V22.9363H16.459V18.1396H17.6582L19.4329 21.4836V18.1396H20.3717V22.9363ZM24.8149 21.4493C24.8149 22.5046 24.0474 23.0117 22.8551 23.0117C21.7861 23.0117 21.0186 22.4977 20.9912 21.4219H21.9711C21.9711 21.9495 22.3069 22.2099 22.8962 22.2099C23.3005 22.2099 23.8624 22.1003 23.8624 21.559C23.8624 20.7709 22.2384 21.141 21.4777 20.4694C21.2516 20.2707 21.0734 19.9486 21.0734 19.4827C21.0734 18.537 21.9163 18.0642 22.8414 18.0642C23.8007 18.0642 24.6572 18.4137 24.7326 19.5649H23.7596C23.7322 19.3045 23.6568 18.8454 22.8619 18.8454C22.3137 18.8454 22.0396 19.0715 22.0396 19.4142C22.0396 20.1337 23.2731 19.9486 24.1022 20.3529C24.4928 20.5379 24.8149 20.8463 24.8149 21.4493ZM28.7295 18.9825H26.3449V20.2501H28.565V21.1067H26.3449V22.9363H25.3992V18.1396H28.7295V18.9825Z" fill="#322D2D"/>
</g>
<defs>
<clipPath id="clip0_1_690">
<rect width="25.9223" height="25.9223" fill="white" transform="translate(9.54504 10.157)"/>
</clipPath>
</defs>
</svg>
