<svg width="46" height="46" viewBox="0 0 46 46" fill="none" xmlns="http://www.w3.org/2000/svg">
<circle cx="22.7093" cy="23.1182" r="21.242" stroke="#322D2D" stroke-width="2.16"/>
<g clip-path="url(#clip0_1_665)">
<path d="M31.783 10.6179C31.408 10.6447 31.0598 10.8411 30.9259 11.1983C30.3008 12.868 27.774 13.9662 25.1043 15.118C20.0327 17.3145 13.1129 20.3057 15.0683 29.8238C13.7379 31.2792 12.6575 33.1185 12.1307 35.6632C12.0325 36.1454 12.345 36.6186 12.8272 36.7168C12.8897 36.7257 12.9522 36.7347 13.0057 36.7347C13.4165 36.7347 13.7915 36.449 13.8808 36.0204C14.3094 33.9668 15.1219 32.4578 16.1755 31.2345C17.2916 31.9488 19.5952 33.1632 22.4703 33.1632C24.5239 33.1632 26.8722 32.5471 29.283 30.6988C36.9885 24.7879 32.7831 11.7787 32.6045 11.2251C32.4973 10.8679 32.167 10.6179 31.783 10.6179ZM28.2115 29.2791C23.5328 32.8685 19.2738 31.047 17.488 29.9577C18.6041 29.0023 19.872 28.2166 21.1756 27.4219C23.7739 25.8237 26.4615 24.1718 27.6936 20.9753C27.8722 20.511 27.6401 20.0021 27.1847 19.8235C26.7204 19.6449 26.2115 19.8771 26.0329 20.3325C25.015 22.9665 22.6935 24.3861 20.247 25.8951C19.0595 26.6273 17.8094 27.3951 16.6487 28.3416C15.6933 21.145 20.8274 18.9128 25.8275 16.752C27.9972 15.8145 30.0776 14.9127 31.408 13.6091C32.2205 17.2342 33.3366 25.3415 28.2115 29.2791Z" fill="#322D2D"/>
</g>
<defs>
<clipPath id="clip0_1_665">
<rect width="27.3625" height="27.3625" fill="white" transform="translate(9.03064 10.157)"/>
</clipPath>
</defs>
</svg>
